<svg xmlns="http://www.w3.org/2000/svg" width="37" height="37" viewBox="0 0 37 37" fill="none">
  <path d="M25.2352 24.1946C24.4258 23.9128 26.0518 24.4765 25.2352 24.1946V24.1946Z" fill="#AFA9A0"/>
  <path d="M25.2352 24.1944C24.2596 23.8548 23.2045 23.8331 22.2289 23.4934C21.9326 23.3923 21.3473 23.2694 21.2244 22.9298C21.1088 22.5973 21.1088 22.2071 21.0871 21.8602C21.0727 21.5856 21.0654 21.311 21.0654 21.0364C21.0654 20.8557 21.5279 20.4727 21.6291 20.3065C22.0193 19.6561 22.0555 18.7817 22.1277 18.0446C22.7564 18.2181 22.8359 17.0546 22.9443 16.7005C23.0238 16.4548 23.508 14.7638 22.7564 14.995C22.9371 14.677 23.0094 14.2868 23.06 13.9327C23.2045 13.0077 23.2623 11.996 22.9805 11.0927C22.3951 9.21375 20.5957 8.15867 18.6951 8.10086C16.7656 8.03582 14.8289 8.96082 14.1062 10.8325C13.7594 11.743 13.7883 12.7331 13.9039 13.687C13.9545 14.1206 14.0268 14.6048 14.2436 14.995C13.5426 14.7854 13.9184 16.2741 13.9979 16.5343C14.1135 16.9028 14.2146 18.2253 14.8723 18.0446C14.9301 18.63 14.9951 19.2298 15.1541 19.8007C15.2625 20.1837 15.4865 20.5089 15.7467 20.8052C15.8768 20.9497 15.9418 20.9641 15.9346 21.152C15.9273 21.7157 15.9418 22.3227 15.7973 22.872C15.6527 23.4212 14.4459 23.6524 13.9617 23.7536C12.6609 24.021 11.4613 24.1438 10.3773 24.9532C9.1127 25.8854 8.45508 27.338 8.45508 28.9061H28.5449C28.5449 26.7743 27.2586 24.8954 25.2352 24.1944Z" fill="#AFA9A0"/>
  <path d="M10.3557 23.3056L10.4713 23.2478C10.4497 23.255 10.428 23.2695 10.4135 23.2767C10.3918 23.2839 10.3774 23.2912 10.3557 23.3056Z" fill="#AFA9A0"/>
  <path d="M10.3557 23.3058C10.11 23.4286 9.81367 23.5804 10.4135 23.2769L10.4713 23.2479C10.9627 23.0167 11.4902 22.9589 12.0178 22.9083C12.2201 22.8866 12.3141 22.7493 12.1623 22.5542C11.8732 22.1856 10.876 22.1134 10.4568 21.9472C10.1967 21.846 10.1244 21.7521 10.1027 21.463C10.0955 21.3329 10.0232 20.7548 10.1244 20.6608C10.1967 20.5886 10.652 20.6175 10.7531 20.603C11.165 20.5524 11.5842 20.4657 11.9744 20.314C12.1406 20.2489 12.2996 20.1694 12.4441 20.0683C12.6176 19.9382 12.3141 19.6202 12.2346 19.4468C11.9889 18.9048 11.8805 18.3122 11.8443 17.7196C11.7721 16.5562 11.9527 15.3854 11.7359 14.2292C11.4107 12.4587 10.0449 11.5698 8.30332 11.5698C7.22656 11.5698 6.16426 11.9384 5.56445 12.8778C4.89961 13.9112 4.93574 15.1976 4.97188 16.3755C4.99355 17.0476 5.02246 17.7269 4.92852 18.3989C4.88516 18.688 4.82012 18.9698 4.71895 19.2444C4.63945 19.454 4.23477 19.9743 4.39375 20.0827C4.99355 20.5091 6.00527 20.6536 6.72793 20.5958C6.74961 20.9499 6.81465 21.4052 6.68457 21.7376C6.48223 22.2579 4.97187 22.3952 4.5166 22.547C3.25195 22.9661 2.3125 23.9923 2.3125 25.4376H8.05762C8.15156 25.4376 8.51289 24.7655 8.61406 24.6571C9.10547 24.1151 9.70527 23.6454 10.3557 23.3058Z" fill="#AFA9A0"/>
  <path d="M32.4689 22.5397C31.8836 22.3518 30.7562 22.294 30.3371 21.7881C30.1275 21.5352 30.2431 20.892 30.2648 20.5885C30.5828 20.6174 30.9297 20.5668 31.2548 20.5235C31.5511 20.4801 31.8402 20.4223 32.122 20.3211C32.2521 20.2706 32.3822 20.22 32.505 20.1477C32.7869 19.9815 32.6568 19.9526 32.5123 19.7069C31.7246 18.3844 32.0787 16.7079 32.0425 15.2553C32.0136 14.0485 31.6957 12.726 30.5972 12.0467C29.6072 11.4325 28.1402 11.4108 27.0779 11.8444C24.0138 13.0729 25.8205 17.1342 24.7726 19.4612C24.592 19.8514 24.3318 19.9887 24.7871 20.22C25.04 20.35 25.3146 20.4368 25.5892 20.5018C26.0084 20.603 26.442 20.6608 26.8755 20.6752C26.9478 20.6752 26.8972 21.5858 26.8755 21.6797C26.7961 22.0338 26.0228 22.135 25.7338 22.2145C25.4375 22.294 24.9461 22.3157 24.8015 22.6264C24.5847 23.0889 25.517 22.9733 25.7482 23.0166C26.4925 23.1539 27.1502 23.5659 27.7283 24.0356C28.1619 24.3897 28.7472 24.8666 28.9062 25.4448H34.7019C34.6875 23.9922 33.7408 22.9588 32.4689 22.5397Z" fill="#AFA9A0"/>
</svg>